<svg id="Layer_1_1_" enable-background="new 0 0 64 64" height="512" viewBox="0 0 64 64" width="512" xmlns="http://www.w3.org/2000/svg"><path d="m56 27.99999c0-15.34004-13.28478-27.57718-28.977-25.83429-12.04351 1.33764-21.68598 11.10579-22.88941 23.16345-.66052 6.61804 1.16566 12.78944 4.65358 17.69903 3.50479 4.93333 5.21283 10.92025 5.21283 16.9718v.00001h25v-5h13v-13h7z" fill="#50b6cf"/><path d="m7.43213 15.10468c-1.76898 3.07983-2.93109 6.54297-3.29852 10.22443-.66052 6.6181 1.16565 12.78949 4.65356 17.69904 3.50476 4.93334 5.21283 10.92028 5.21283 16.97179v.00006 2h25v-7h13v-3.76062c-20.9151-4.7016-37.66168-18.41553-44.56787-36.1347z" fill="#3cadc9"/><path d="m36.91101 25.26715c.05274-.41595.08899-.83691.08899-1.26715s-.03625-.8512-.08899-1.26715l-2.21887-.91022c-.17145-.60681-.40918-1.18488-.71112-1.72388l.92316-2.20874c-.52008-.67181-1.12231-1.27399-1.79413-1.79407l-2.20874.9231c-.539-.30194-1.11713-.53967-1.72394-.71118l-.91022-2.21887c-.41595-.05274-.83691-.08899-1.26715-.08899s-.8512.03625-1.26715.08899l-.91022 2.21887c-.60681.17145-1.18488.40924-1.72388.71112l-2.20868-.92316c-.67181.52008-1.27405 1.12225-1.79419 1.79407l.92316 2.20886c-.30194.539-.53967 1.11707-.71118 1.72388l-2.21887.91022c-.05274.41595-.08899.83691-.08899 1.26715s.03625.85126.08899 1.26715l2.21881.91016c.17151.60681.4093 1.18488.71118 1.72388l-.92316 2.20874c.52008.67181 1.12231 1.27399 1.79407 1.79413l2.2088-.9231c.539.30188 1.11707.53961 1.72394.71118l.91022 2.21887c.41595.05274.83691.08899 1.26715.08899s.8512-.03625 1.26715-.08899l.91022-2.21887c.60681-.17145 1.18488-.40918 1.72388-.71112l2.20874.92316c.67181-.52014 1.27405-1.12231 1.79413-1.79413l-.92316-2.2088c.30194-.539.53967-1.11707.71118-1.72388zm-9.91101 2.73285c-2.20917 0-4-1.79089-4-4 0-2.20917 1.79083-4 4-4s4 1.79083 4 4c0 2.20911-1.79083 4-4 4z" fill="#e34e4b"/><g fill="#223b5a"><path d="m35 55h4v2h-4z"/><path d="m11.5752 28.26611c-.38184-1.38232-.5752-2.81787-.5752-4.26611 0-8.82227 7.17773-16 16-16h10v2h-10c-7.71973 0-14 6.28027-14 14 0 1.26855.16895 2.5249.50293 3.73389z"/><path d="m27.01367 40c-.00488 0-.00977 0-.01465 0-.88086 0-1.76562-.07275-2.62891-.21582l.32617-1.97266c.75977.12598 1.54005.15772 2.31642.18848.46777 0 .93945-.02393 1.4043-.0708l.20117 1.99023c-.53223.05323-1.07129.08057-1.6045.08057zm3.70508-.43506-.46289-1.94531c1.20996-.28809 2.37793-.73828 3.4707-1.33838l.96289 1.75293c-1.25097.68652-2.58593 1.20166-3.9707 1.53076zm-8.42676-.26904c-1.36035-.41846-2.66016-1.01855-3.86328-1.78369l1.07422-1.6875c1.05176.66895 2.1875 1.19385 3.37695 1.55908zm14.19434-2.40918-1.1875-1.60938c1.00195-.73877 1.90332-1.60889 2.67871-2.58643l1.56641 1.24316c-.88477 1.11573-1.91309 2.1089-3.05762 2.95265zm-19.77735-.63428c-1.09082-.91699-2.05371-1.97412-2.86426-3.14258l1.64453-1.13965c.70801 1.02295 1.55176 1.94824 2.50684 2.75098zm24.04395-4.07275-1.7168-1.02441c.6377-1.07031 1.12988-2.22119 1.46094-3.42139l1.92773.53223c-.3789 1.37304-.9414 2.68993-1.67187 3.91357zm-28.00195-.89698c-.49316-.96289-.88867-1.97754-1.17578-3.0166l1.92773-.53223c.25098.9082.59668 1.79492 1.02734 2.63672z"/><path d="m34.70703 12.70703-1.41406-1.41406 2.29297-2.29297-2.29297-2.29297 1.41406-1.41406 3.70703 3.70703z"/><path d="m23 55h2v2h-2z"/><path d="m27 55h2v2h-2z"/><path d="m31 55h2v2h-2z"/></g><path d="m33 24c0 3.31371-2.68629 6-6 6s-6-2.68629-6-6 2.68629-6 6-6 6 2.68629 6 6zm-6-4c-2.20914 0-4 1.79086-4 4s1.79086 4 4 4 4-1.79086 4-4-1.79086-4-4-4z" fill="#de4542"/></svg>